<?xml version='1.0' encoding='UTF-8' ?>
<svg height="500" width="960">

	<g><line stroke="black" stroke-width="2" x1="480.000000" y1="50.000000" x2="240.000000" y2="150.000000" /><line stroke="black" stroke-width="2" x1="480.000000" y1="50.000000" x2="720.000000" y2="150.000000" /><line stroke="black" stroke-width="2" x1="240.000000" y1="150.000000" x2="120.000000" y2="250.000000" /><line stroke="black" stroke-width="2" x1="240.000000" y1="150.000000" x2="360.000000" y2="250.000000" /><line stroke="black" stroke-width="2" x1="120.000000" y1="250.000000" x2="60.000000" y2="350.000000" /><line stroke="black" stroke-width="2" x1="120.000000" y1="250.000000" x2="180.000000" y2="350.000000" /><line stroke="black" stroke-width="2" x1="60.000000" y1="350.000000" x2="30.000000" y2="450.000000" /><line stroke="black" stroke-width="2" x1="60.000000" y1="350.000000" x2="90.000000" y2="450.000000" /><line stroke="black" stroke-width="2" x1="180.000000" y1="350.000000" x2="150.000000" y2="450.000000" /><line stroke="black" stroke-width="2" x1="180.000000" y1="350.000000" x2="210.000000" y2="450.000000" /><line stroke="black" stroke-width="2" x1="360.000000" y1="250.000000" x2="300.000000" y2="350.000000" /><line stroke="black" stroke-width="2" x1="360.000000" y1="250.000000" x2="420.000000" y2="350.000000" /><line stroke="black" stroke-width="2" x1="300.000000" y1="350.000000" x2="270.000000" y2="450.000000" /><line stroke="black" stroke-width="2" x1="300.000000" y1="350.000000" x2="330.000000" y2="450.000000" /><line stroke="black" stroke-width="2" x1="420.000000" y1="350.000000" x2="390.000000" y2="450.000000" /><line stroke="black" stroke-width="2" x1="420.000000" y1="350.000000" x2="450.000000" y2="450.000000" /><line stroke="black" stroke-width="2" x1="720.000000" y1="150.000000" x2="600.000000" y2="250.000000" /><line stroke="black" stroke-width="2" x1="720.000000" y1="150.000000" x2="840.000000" y2="250.000000" /><line stroke="black" stroke-width="2" x1="600.000000" y1="250.000000" x2="540.000000" y2="350.000000" /><line stroke="black" stroke-width="2" x1="600.000000" y1="250.000000" x2="660.000000" y2="350.000000" /><line stroke="black" stroke-width="2" x1="540.000000" y1="350.000000" x2="510.000000" y2="450.000000" /><line stroke="black" stroke-width="2" x1="540.000000" y1="350.000000" x2="570.000000" y2="450.000000" /><line stroke="black" stroke-width="2" x1="660.000000" y1="350.000000" x2="630.000000" y2="450.000000" /><line stroke="black" stroke-width="2" x1="660.000000" y1="350.000000" x2="690.000000" y2="450.000000" /><line stroke="black" stroke-width="2" x1="840.000000" y1="250.000000" x2="780.000000" y2="350.000000" /><line stroke="black" stroke-width="2" x1="840.000000" y1="250.000000" x2="900.000000" y2="350.000000" /><line stroke="black" stroke-width="2" x1="780.000000" y1="350.000000" x2="750.000000" y2="450.000000" /><line stroke="black" stroke-width="2" x1="780.000000" y1="350.000000" x2="810.000000" y2="450.000000" /><line stroke="black" stroke-width="2" x1="900.000000" y1="350.000000" x2="870.000000" y2="450.000000" />
		<circle cx="480.000000" cy="50.000000" r="25" fill="white" stroke="black" stroke-width="2"/>
		<text x="480.000000" y="58.000000" fill="black" font-family="sans-serif" font-size="25" text-anchor="middle">3</text>

		<circle cx="240.000000" cy="150.000000" r="25" fill="white" stroke="black" stroke-width="2"/>
		<text x="240.000000" y="158.000000" fill="black" font-family="sans-serif" font-size="25" text-anchor="middle">4</text>

		<circle cx="120.000000" cy="250.000000" r="25" fill="white" stroke="black" stroke-width="2"/>
		<text x="120.000000" y="258.000000" fill="black" font-family="sans-serif" font-size="25" text-anchor="middle">6</text>

		<circle cx="60.000000" cy="350.000000" r="25" fill="white" stroke="black" stroke-width="2"/>
		<text x="60.000000" y="358.000000" fill="black" font-family="sans-serif" font-size="25" text-anchor="middle">5</text>

		<circle cx="30.000000" cy="450.000000" r="25" fill="white" stroke="black" stroke-width="2"/>
		<text x="30.000000" y="458.000000" fill="black" font-family="sans-serif" font-size="25" text-anchor="middle">7</text>

		<circle cx="90.000000" cy="450.000000" r="25" fill="white" stroke="black" stroke-width="2"/>
		<text x="90.000000" y="458.000000" fill="black" font-family="sans-serif" font-size="25" text-anchor="middle">65</text>

		<circle cx="180.000000" cy="350.000000" r="25" fill="white" stroke="black" stroke-width="2"/>
		<text x="180.000000" y="358.000000" fill="black" font-family="sans-serif" font-size="25" text-anchor="middle">4</text>

		<circle cx="150.000000" cy="450.000000" r="25" fill="white" stroke="black" stroke-width="2"/>
		<text x="150.000000" y="458.000000" fill="black" font-family="sans-serif" font-size="25" text-anchor="middle">4</text>

		<circle cx="210.000000" cy="450.000000" r="25" fill="white" stroke="black" stroke-width="2"/>
		<text x="210.000000" y="458.000000" fill="black" font-family="sans-serif" font-size="25" text-anchor="middle">4</text>

		<circle cx="360.000000" cy="250.000000" r="25" fill="white" stroke="black" stroke-width="2"/>
		<text x="360.000000" y="258.000000" fill="black" font-family="sans-serif" font-size="25" text-anchor="middle">7</text>

		<circle cx="300.000000" cy="350.000000" r="25" fill="white" stroke="black" stroke-width="2"/>
		<text x="300.000000" y="358.000000" fill="black" font-family="sans-serif" font-size="25" text-anchor="middle">3</text>

		<circle cx="270.000000" cy="450.000000" r="25" fill="white" stroke="black" stroke-width="2"/>
		<text x="270.000000" y="458.000000" fill="black" font-family="sans-serif" font-size="25" text-anchor="middle">4</text>

		<circle cx="330.000000" cy="450.000000" r="25" fill="white" stroke="black" stroke-width="2"/>
		<text x="330.000000" y="458.000000" fill="black" font-family="sans-serif" font-size="25" text-anchor="middle">4</text>

		<circle cx="420.000000" cy="350.000000" r="25" fill="white" stroke="black" stroke-width="2"/>
		<text x="420.000000" y="358.000000" fill="black" font-family="sans-serif" font-size="25" text-anchor="middle">3</text>

		<circle cx="390.000000" cy="450.000000" r="25" fill="white" stroke="black" stroke-width="2"/>
		<text x="390.000000" y="458.000000" fill="black" font-family="sans-serif" font-size="25" text-anchor="middle">44</text>

		<circle cx="450.000000" cy="450.000000" r="25" fill="white" stroke="black" stroke-width="2"/>
		<text x="450.000000" y="458.000000" fill="black" font-family="sans-serif" font-size="25" text-anchor="middle">4</text>

		<circle cx="720.000000" cy="150.000000" r="25" fill="white" stroke="black" stroke-width="2"/>
		<text x="720.000000" y="158.000000" fill="black" font-family="sans-serif" font-size="25" text-anchor="middle">5</text>

		<circle cx="600.000000" cy="250.000000" r="25" fill="white" stroke="black" stroke-width="2"/>
		<text x="600.000000" y="258.000000" fill="black" font-family="sans-serif" font-size="25" text-anchor="middle">7</text>

		<circle cx="540.000000" cy="350.000000" r="25" fill="white" stroke="black" stroke-width="2"/>
		<text x="540.000000" y="358.000000" fill="black" font-family="sans-serif" font-size="25" text-anchor="middle">4</text>

		<circle cx="510.000000" cy="450.000000" r="25" fill="white" stroke="black" stroke-width="2"/>
		<text x="510.000000" y="458.000000" fill="black" font-family="sans-serif" font-size="25" text-anchor="middle">1</text>

		<circle cx="570.000000" cy="450.000000" r="25" fill="white" stroke="black" stroke-width="2"/>
		<text x="570.000000" y="458.000000" fill="black" font-family="sans-serif" font-size="25" text-anchor="middle">2</text>

		<circle cx="660.000000" cy="350.000000" r="25" fill="white" stroke="black" stroke-width="2"/>
		<text x="660.000000" y="358.000000" fill="black" font-family="sans-serif" font-size="25" text-anchor="middle">5</text>

		<circle cx="630.000000" cy="450.000000" r="25" fill="white" stroke="black" stroke-width="2"/>
		<text x="630.000000" y="458.000000" fill="black" font-family="sans-serif" font-size="25" text-anchor="middle">3</text>

		<circle cx="690.000000" cy="450.000000" r="25" fill="white" stroke="black" stroke-width="2"/>
		<text x="690.000000" y="458.000000" fill="black" font-family="sans-serif" font-size="25" text-anchor="middle">4</text>

		<circle cx="840.000000" cy="250.000000" r="25" fill="white" stroke="black" stroke-width="2"/>
		<text x="840.000000" y="258.000000" fill="black" font-family="sans-serif" font-size="25" text-anchor="middle">6</text>

		<circle cx="780.000000" cy="350.000000" r="25" fill="white" stroke="black" stroke-width="2"/>
		<text x="780.000000" y="358.000000" fill="black" font-family="sans-serif" font-size="25" text-anchor="middle">6</text>

		<circle cx="750.000000" cy="450.000000" r="25" fill="white" stroke="black" stroke-width="2"/>
		<text x="750.000000" y="458.000000" fill="black" font-family="sans-serif" font-size="25" text-anchor="middle">5</text>

		<circle cx="810.000000" cy="450.000000" r="25" fill="white" stroke="black" stroke-width="2"/>
		<text x="810.000000" y="458.000000" fill="black" font-family="sans-serif" font-size="25" text-anchor="middle">6</text>

		<circle cx="900.000000" cy="350.000000" r="25" fill="white" stroke="black" stroke-width="2"/>
		<text x="900.000000" y="358.000000" fill="black" font-family="sans-serif" font-size="25" text-anchor="middle">7</text>

		<circle cx="870.000000" cy="450.000000" r="25" fill="white" stroke="black" stroke-width="2"/>
		<text x="870.000000" y="458.000000" fill="black" font-family="sans-serif" font-size="25" text-anchor="middle">7</text>

	</g>
</svg>