<?xml version='1.0' encoding='UTF-8' ?>
<svg height="600" width="1920">

	<g><line stroke="black" stroke-width="2" x1="960.000000" y1="50.000000" x2="480.000000" y2="150.000000" /><line stroke="black" stroke-width="2" x1="960.000000" y1="50.000000" x2="1440.000000" y2="150.000000" /><line stroke="black" stroke-width="2" x1="480.000000" y1="150.000000" x2="240.000000" y2="250.000000" /><line stroke="black" stroke-width="2" x1="480.000000" y1="150.000000" x2="720.000000" y2="250.000000" /><line stroke="black" stroke-width="2" x1="240.000000" y1="250.000000" x2="120.000000" y2="350.000000" /><line stroke="black" stroke-width="2" x1="240.000000" y1="250.000000" x2="360.000000" y2="350.000000" /><line stroke="black" stroke-width="2" x1="120.000000" y1="350.000000" x2="60.000000" y2="450.000000" /><line stroke="black" stroke-width="2" x1="120.000000" y1="350.000000" x2="180.000000" y2="450.000000" /><line stroke="black" stroke-width="2" x1="720.000000" y1="250.000000" x2="600.000000" y2="350.000000" /><line stroke="black" stroke-width="2" x1="720.000000" y1="250.000000" x2="840.000000" y2="350.000000" /><line stroke="black" stroke-width="2" x1="840.000000" y1="350.000000" x2="780.000000" y2="450.000000" /><line stroke="black" stroke-width="2" x1="840.000000" y1="350.000000" x2="900.000000" y2="450.000000" /><line stroke="black" stroke-width="2" x1="1440.000000" y1="150.000000" x2="1200.000000" y2="250.000000" /><line stroke="black" stroke-width="2" x1="1440.000000" y1="150.000000" x2="1680.000000" y2="250.000000" /><line stroke="black" stroke-width="2" x1="1200.000000" y1="250.000000" x2="1080.000000" y2="350.000000" /><line stroke="black" stroke-width="2" x1="1200.000000" y1="250.000000" x2="1320.000000" y2="350.000000" /><line stroke="black" stroke-width="2" x1="1080.000000" y1="350.000000" x2="1020.000000" y2="450.000000" /><line stroke="black" stroke-width="2" x1="1080.000000" y1="350.000000" x2="1140.000000" y2="450.000000" /><line stroke="black" stroke-width="2" x1="1320.000000" y1="350.000000" x2="1260.000000" y2="450.000000" /><line stroke="black" stroke-width="2" x1="1320.000000" y1="350.000000" x2="1380.000000" y2="450.000000" /><line stroke="black" stroke-width="2" x1="1380.000000" y1="450.000000" x2="1350.000000" y2="550.000000" /><line stroke="black" stroke-width="2" x1="1380.000000" y1="450.000000" x2="1410.000000" y2="550.000000" /><line stroke="black" stroke-width="2" x1="1680.000000" y1="250.000000" x2="1560.000000" y2="350.000000" /><line stroke="black" stroke-width="2" x1="1680.000000" y1="250.000000" x2="1800.000000" y2="350.000000" /><line stroke="black" stroke-width="2" x1="1560.000000" y1="350.000000" x2="1500.000000" y2="450.000000" /><line stroke="black" stroke-width="2" x1="1800.000000" y1="350.000000" x2="1740.000000" y2="450.000000" /><line stroke="black" stroke-width="2" x1="1800.000000" y1="350.000000" x2="1860.000000" y2="450.000000" /><line stroke="black" stroke-width="2" x1="1740.000000" y1="450.000000" x2="1710.000000" y2="550.000000" />
		<circle cx="960.000000" cy="50.000000" r="25" fill="black" stroke="black" stroke-width="2"/>
		<text x="960.000000" y="58.000000" fill="white" font-family="sans-serif" font-size="25" text-anchor="middle">9</text>

		<circle cx="480.000000" cy="150.000000" r="25" fill="black" stroke="black" stroke-width="2"/>
		<text x="480.000000" y="158.000000" fill="white" font-family="sans-serif" font-size="25" text-anchor="middle">3</text>

		<circle cx="240.000000" cy="250.000000" r="25" fill="red" stroke="black" stroke-width="2"/>
		<text x="240.000000" y="258.000000" fill="white" font-family="sans-serif" font-size="25" text-anchor="middle">2</text>

		<circle cx="120.000000" cy="350.000000" r="25" fill="black" stroke="black" stroke-width="2"/>
		<text x="120.000000" y="358.000000" fill="white" font-family="sans-serif" font-size="25" text-anchor="middle">1</text>

		<circle cx="60.000000" cy="450.000000" r="25" fill="red" stroke="black" stroke-width="2"/>
		<text x="60.000000" y="458.000000" fill="white" font-family="sans-serif" font-size="25" text-anchor="middle">0</text>

		<circle cx="180.000000" cy="450.000000" r="25" fill="red" stroke="black" stroke-width="2"/>
		<text x="180.000000" y="458.000000" fill="white" font-family="sans-serif" font-size="25" text-anchor="middle">1</text>

		<circle cx="360.000000" cy="350.000000" r="25" fill="black" stroke="black" stroke-width="2"/>
		<text x="360.000000" y="358.000000" fill="white" font-family="sans-serif" font-size="25" text-anchor="middle">3</text>

		<circle cx="720.000000" cy="250.000000" r="25" fill="red" stroke="black" stroke-width="2"/>
		<text x="720.000000" y="258.000000" fill="white" font-family="sans-serif" font-size="25" text-anchor="middle">5</text>

		<circle cx="600.000000" cy="350.000000" r="25" fill="black" stroke="black" stroke-width="2"/>
		<text x="600.000000" y="358.000000" fill="white" font-family="sans-serif" font-size="25" text-anchor="middle">4</text>

		<circle cx="840.000000" cy="350.000000" r="25" fill="black" stroke="black" stroke-width="2"/>
		<text x="840.000000" y="358.000000" fill="white" font-family="sans-serif" font-size="25" text-anchor="middle">7</text>

		<circle cx="780.000000" cy="450.000000" r="25" fill="red" stroke="black" stroke-width="2"/>
		<text x="780.000000" y="458.000000" fill="white" font-family="sans-serif" font-size="25" text-anchor="middle">6</text>

		<circle cx="900.000000" cy="450.000000" r="25" fill="red" stroke="black" stroke-width="2"/>
		<text x="900.000000" y="458.000000" fill="white" font-family="sans-serif" font-size="25" text-anchor="middle">8</text>

		<circle cx="1440.000000" cy="150.000000" r="25" fill="red" stroke="black" stroke-width="2"/>
		<text x="1440.000000" y="158.000000" fill="white" font-family="sans-serif" font-size="25" text-anchor="middle">65</text>

		<circle cx="1200.000000" cy="250.000000" r="25" fill="black" stroke="black" stroke-width="2"/>
		<text x="1200.000000" y="258.000000" fill="white" font-family="sans-serif" font-size="25" text-anchor="middle">19</text>

		<circle cx="1080.000000" cy="350.000000" r="25" fill="red" stroke="black" stroke-width="2"/>
		<text x="1080.000000" y="358.000000" fill="white" font-family="sans-serif" font-size="25" text-anchor="middle">14</text>

		<circle cx="1020.000000" cy="450.000000" r="25" fill="black" stroke="black" stroke-width="2"/>
		<text x="1020.000000" y="458.000000" fill="white" font-family="sans-serif" font-size="25" text-anchor="middle">12</text>

		<circle cx="1140.000000" cy="450.000000" r="25" fill="black" stroke="black" stroke-width="2"/>
		<text x="1140.000000" y="458.000000" fill="white" font-family="sans-serif" font-size="25" text-anchor="middle">17</text>

		<circle cx="1320.000000" cy="350.000000" r="25" fill="red" stroke="black" stroke-width="2"/>
		<text x="1320.000000" y="358.000000" fill="white" font-family="sans-serif" font-size="25" text-anchor="middle">23</text>

		<circle cx="1260.000000" cy="450.000000" r="25" fill="black" stroke="black" stroke-width="2"/>
		<text x="1260.000000" y="458.000000" fill="white" font-family="sans-serif" font-size="25" text-anchor="middle">23</text>

		<circle cx="1380.000000" cy="450.000000" r="25" fill="black" stroke="black" stroke-width="2"/>
		<text x="1380.000000" y="458.000000" fill="white" font-family="sans-serif" font-size="25" text-anchor="middle">55</text>

		<circle cx="1350.000000" cy="550.000000" r="25" fill="red" stroke="black" stroke-width="2"/>
		<text x="1350.000000" y="558.000000" fill="white" font-family="sans-serif" font-size="25" text-anchor="middle">45</text>

		<circle cx="1410.000000" cy="550.000000" r="25" fill="red" stroke="black" stroke-width="2"/>
		<text x="1410.000000" y="558.000000" fill="white" font-family="sans-serif" font-size="25" text-anchor="middle">57</text>

		<circle cx="1680.000000" cy="250.000000" r="25" fill="black" stroke="black" stroke-width="2"/>
		<text x="1680.000000" y="258.000000" fill="white" font-family="sans-serif" font-size="25" text-anchor="middle">83</text>

		<circle cx="1560.000000" cy="350.000000" r="25" fill="black" stroke="black" stroke-width="2"/>
		<text x="1560.000000" y="358.000000" fill="white" font-family="sans-serif" font-size="25" text-anchor="middle">74</text>

		<circle cx="1500.000000" cy="450.000000" r="25" fill="red" stroke="black" stroke-width="2"/>
		<text x="1500.000000" y="458.000000" fill="white" font-family="sans-serif" font-size="25" text-anchor="middle">68</text>

		<circle cx="1800.000000" cy="350.000000" r="25" fill="red" stroke="black" stroke-width="2"/>
		<text x="1800.000000" y="358.000000" fill="white" font-family="sans-serif" font-size="25" text-anchor="middle">94</text>

		<circle cx="1740.000000" cy="450.000000" r="25" fill="black" stroke="black" stroke-width="2"/>
		<text x="1740.000000" y="458.000000" fill="white" font-family="sans-serif" font-size="25" text-anchor="middle">92</text>

		<circle cx="1710.000000" cy="550.000000" r="25" fill="red" stroke="black" stroke-width="2"/>
		<text x="1710.000000" y="558.000000" fill="white" font-family="sans-serif" font-size="25" text-anchor="middle">91</text>

		<circle cx="1860.000000" cy="450.000000" r="25" fill="black" stroke="black" stroke-width="2"/>
		<text x="1860.000000" y="458.000000" fill="white" font-family="sans-serif" font-size="25" text-anchor="middle">97</text>

	</g>
</svg>