<?xml version='1.0' encoding='UTF-8' ?>
<svg height="1075" width="1075">

	<g><line stroke="black" stroke-width="2" x1="1035.000000" y1="535.000000" x2="689.508497" y2="1010.528258" /><line stroke="black" stroke-width="2" x1="1035.000000" y1="535.000000" x2="130.491503" y2="828.892626" /><line stroke="black" stroke-width="2" x1="1035.000000" y1="535.000000" x2="130.491503" y2="241.107374" /><line stroke="black" stroke-width="2" x1="1035.000000" y1="535.000000" x2="689.508497" y2="59.471742" /><line stroke="black" stroke-width="2" x1="689.508497" y1="1010.528258" x2="130.491503" y2="828.892626" /><line stroke="black" stroke-width="2" x1="689.508497" y1="1010.528258" x2="130.491503" y2="241.107374" /><line stroke="black" stroke-width="2" x1="689.508497" y1="1010.528258" x2="689.508497" y2="59.471742" /><line stroke="black" stroke-width="2" x1="130.491503" y1="828.892626" x2="130.491503" y2="241.107374" /><line stroke="black" stroke-width="2" x1="130.491503" y1="828.892626" x2="689.508497" y2="59.471742" /><line stroke="black" stroke-width="2" x1="130.491503" y1="241.107374" x2="689.508497" y2="59.471742" />
		<circle cx="1035.000000" cy="535.000000" r="25" fill="white" stroke="black" stroke-width="2"/>
		<text x="1035.000000" y="543.000000" fill="black" font-family="sans-serif" font-size="25" text-anchor="middle">1</text>
		<circle cx="689.508497" cy="1010.528258" r="25" fill="white" stroke="black" stroke-width="2"/>
		<text x="689.508497" y="1018.528258" fill="black" font-family="sans-serif" font-size="25" text-anchor="middle">2</text>
		<circle cx="130.491503" cy="828.892626" r="25" fill="white" stroke="black" stroke-width="2"/>
		<text x="130.491503" y="836.892626" fill="black" font-family="sans-serif" font-size="25" text-anchor="middle">3</text>
		<circle cx="130.491503" cy="241.107374" r="25" fill="white" stroke="black" stroke-width="2"/>
		<text x="130.491503" y="249.107374" fill="black" font-family="sans-serif" font-size="25" text-anchor="middle">4</text>
		<circle cx="689.508497" cy="59.471742" r="25" fill="white" stroke="black" stroke-width="2"/>
		<text x="689.508497" y="67.471742" fill="black" font-family="sans-serif" font-size="25" text-anchor="middle">5</text>
	</g>
</svg>