<?xml version='1.0' encoding='UTF-8' ?>
<svg height="1075" width="1075">

	<g><line stroke="black" stroke-width="2" x1="1035.000000" y1="535.000000" x2="1024.073800" y2="638.955845" />
<line stroke="black" stroke-width="2" x1="1035.000000" y1="535.000000" x2="991.772729" y2="738.368322" />
<line stroke="black" stroke-width="2" x1="1035.000000" y1="535.000000" x2="939.508497" y2="828.892626" />
<line stroke="black" stroke-width="2" x1="1035.000000" y1="535.000000" x2="869.565303" y2="906.572413" />
<line stroke="black" stroke-width="2" x1="1035.000000" y1="535.000000" x2="785.000000" y2="968.012702" />
<line stroke="black" stroke-width="2" x1="1035.000000" y1="535.000000" x2="689.508497" y2="1010.528258" />
<line stroke="black" stroke-width="2" x1="1035.000000" y1="535.000000" x2="587.264232" y2="1032.260948" />
<line stroke="black" stroke-width="2" x1="1035.000000" y1="535.000000" x2="482.735768" y2="1032.260948" />
<line stroke="black" stroke-width="2" x1="1035.000000" y1="535.000000" x2="380.491503" y2="1010.528258" />
<line stroke="black" stroke-width="2" x1="1035.000000" y1="535.000000" x2="285.000000" y2="968.012702" />
<line stroke="black" stroke-width="2" x1="1035.000000" y1="535.000000" x2="200.434697" y2="906.572413" />
<line stroke="black" stroke-width="2" x1="1035.000000" y1="535.000000" x2="130.491503" y2="828.892626" />
<line stroke="black" stroke-width="2" x1="1035.000000" y1="535.000000" x2="78.227271" y2="738.368322" />
<line stroke="black" stroke-width="2" x1="1035.000000" y1="535.000000" x2="45.926200" y2="638.955845" />
<line stroke="black" stroke-width="2" x1="1035.000000" y1="535.000000" x2="35.000000" y2="535.000000" />
<line stroke="black" stroke-width="2" x1="1035.000000" y1="535.000000" x2="45.926200" y2="431.044155" />
<line stroke="black" stroke-width="2" x1="1035.000000" y1="535.000000" x2="78.227271" y2="331.631678" />
<line stroke="black" stroke-width="2" x1="1035.000000" y1="535.000000" x2="130.491503" y2="241.107374" />
<line stroke="black" stroke-width="2" x1="1035.000000" y1="535.000000" x2="200.434697" y2="163.427587" />
<line stroke="black" stroke-width="2" x1="1035.000000" y1="535.000000" x2="285.000000" y2="101.987298" />
<line stroke="black" stroke-width="2" x1="1035.000000" y1="535.000000" x2="380.491503" y2="59.471742" />
<line stroke="black" stroke-width="2" x1="1035.000000" y1="535.000000" x2="482.735768" y2="37.739052" />
<line stroke="black" stroke-width="2" x1="1035.000000" y1="535.000000" x2="587.264232" y2="37.739052" />
<line stroke="black" stroke-width="2" x1="1035.000000" y1="535.000000" x2="689.508497" y2="59.471742" />
<line stroke="black" stroke-width="2" x1="1035.000000" y1="535.000000" x2="785.000000" y2="101.987298" />
<line stroke="black" stroke-width="2" x1="1035.000000" y1="535.000000" x2="869.565303" y2="163.427587" />
<line stroke="black" stroke-width="2" x1="1035.000000" y1="535.000000" x2="939.508497" y2="241.107374" />
<line stroke="black" stroke-width="2" x1="1035.000000" y1="535.000000" x2="991.772729" y2="331.631678" />
<line stroke="black" stroke-width="2" x1="1024.073800" y1="638.955845" x2="991.772729" y2="738.368322" />
<line stroke="black" stroke-width="2" x1="1024.073800" y1="638.955845" x2="939.508497" y2="828.892626" />
<line stroke="black" stroke-width="2" x1="1024.073800" y1="638.955845" x2="869.565303" y2="906.572413" />
<line stroke="black" stroke-width="2" x1="1024.073800" y1="638.955845" x2="785.000000" y2="968.012702" />
<line stroke="black" stroke-width="2" x1="1024.073800" y1="638.955845" x2="689.508497" y2="1010.528258" />
<line stroke="black" stroke-width="2" x1="1024.073800" y1="638.955845" x2="587.264232" y2="1032.260948" />
<line stroke="black" stroke-width="2" x1="1024.073800" y1="638.955845" x2="482.735768" y2="1032.260948" />
<line stroke="black" stroke-width="2" x1="1024.073800" y1="638.955845" x2="380.491503" y2="1010.528258" />
<line stroke="black" stroke-width="2" x1="1024.073800" y1="638.955845" x2="285.000000" y2="968.012702" />
<line stroke="black" stroke-width="2" x1="1024.073800" y1="638.955845" x2="200.434697" y2="906.572413" />
<line stroke="black" stroke-width="2" x1="1024.073800" y1="638.955845" x2="130.491503" y2="828.892626" />
<line stroke="black" stroke-width="2" x1="1024.073800" y1="638.955845" x2="78.227271" y2="738.368322" />
<line stroke="black" stroke-width="2" x1="1024.073800" y1="638.955845" x2="45.926200" y2="638.955845" />
<line stroke="black" stroke-width="2" x1="1024.073800" y1="638.955845" x2="35.000000" y2="535.000000" />
<line stroke="black" stroke-width="2" x1="1024.073800" y1="638.955845" x2="45.926200" y2="431.044155" />
<line stroke="black" stroke-width="2" x1="1024.073800" y1="638.955845" x2="78.227271" y2="331.631678" />
<line stroke="black" stroke-width="2" x1="1024.073800" y1="638.955845" x2="130.491503" y2="241.107374" />
<line stroke="black" stroke-width="2" x1="1024.073800" y1="638.955845" x2="200.434697" y2="163.427587" />
<line stroke="black" stroke-width="2" x1="1024.073800" y1="638.955845" x2="285.000000" y2="101.987298" />
<line stroke="black" stroke-width="2" x1="1024.073800" y1="638.955845" x2="380.491503" y2="59.471742" />
<line stroke="black" stroke-width="2" x1="1024.073800" y1="638.955845" x2="482.735768" y2="37.739052" />
<line stroke="black" stroke-width="2" x1="1024.073800" y1="638.955845" x2="587.264232" y2="37.739052" />
<line stroke="black" stroke-width="2" x1="1024.073800" y1="638.955845" x2="689.508497" y2="59.471742" />
<line stroke="black" stroke-width="2" x1="1024.073800" y1="638.955845" x2="785.000000" y2="101.987298" />
<line stroke="black" stroke-width="2" x1="1024.073800" y1="638.955845" x2="869.565303" y2="163.427587" />
<line stroke="black" stroke-width="2" x1="1024.073800" y1="638.955845" x2="939.508497" y2="241.107374" />
<line stroke="black" stroke-width="2" x1="1024.073800" y1="638.955845" x2="991.772729" y2="331.631678" />
<line stroke="black" stroke-width="2" x1="991.772729" y1="738.368322" x2="939.508497" y2="828.892626" />
<line stroke="black" stroke-width="2" x1="991.772729" y1="738.368322" x2="869.565303" y2="906.572413" />
<line stroke="black" stroke-width="2" x1="991.772729" y1="738.368322" x2="785.000000" y2="968.012702" />
<line stroke="black" stroke-width="2" x1="991.772729" y1="738.368322" x2="689.508497" y2="1010.528258" />
<line stroke="black" stroke-width="2" x1="991.772729" y1="738.368322" x2="587.264232" y2="1032.260948" />
<line stroke="black" stroke-width="2" x1="991.772729" y1="738.368322" x2="482.735768" y2="1032.260948" />
<line stroke="black" stroke-width="2" x1="991.772729" y1="738.368322" x2="380.491503" y2="1010.528258" />
<line stroke="black" stroke-width="2" x1="991.772729" y1="738.368322" x2="285.000000" y2="968.012702" />
<line stroke="black" stroke-width="2" x1="991.772729" y1="738.368322" x2="200.434697" y2="906.572413" />
<line stroke="black" stroke-width="2" x1="991.772729" y1="738.368322" x2="130.491503" y2="828.892626" />
<line stroke="black" stroke-width="2" x1="991.772729" y1="738.368322" x2="78.227271" y2="738.368322" />
<line stroke="black" stroke-width="2" x1="991.772729" y1="738.368322" x2="45.926200" y2="638.955845" />
<line stroke="black" stroke-width="2" x1="991.772729" y1="738.368322" x2="35.000000" y2="535.000000" />
<line stroke="black" stroke-width="2" x1="991.772729" y1="738.368322" x2="45.926200" y2="431.044155" />
<line stroke="black" stroke-width="2" x1="991.772729" y1="738.368322" x2="78.227271" y2="331.631678" />
<line stroke="black" stroke-width="2" x1="991.772729" y1="738.368322" x2="130.491503" y2="241.107374" />
<line stroke="black" stroke-width="2" x1="991.772729" y1="738.368322" x2="200.434697" y2="163.427587" />
<line stroke="black" stroke-width="2" x1="991.772729" y1="738.368322" x2="285.000000" y2="101.987298" />
<line stroke="black" stroke-width="2" x1="991.772729" y1="738.368322" x2="380.491503" y2="59.471742" />
<line stroke="black" stroke-width="2" x1="991.772729" y1="738.368322" x2="482.735768" y2="37.739052" />
<line stroke="black" stroke-width="2" x1="991.772729" y1="738.368322" x2="587.264232" y2="37.739052" />
<line stroke="black" stroke-width="2" x1="991.772729" y1="738.368322" x2="689.508497" y2="59.471742" />
<line stroke="black" stroke-width="2" x1="991.772729" y1="738.368322" x2="785.000000" y2="101.987298" />
<line stroke="black" stroke-width="2" x1="991.772729" y1="738.368322" x2="869.565303" y2="163.427587" />
<line stroke="black" stroke-width="2" x1="991.772729" y1="738.368322" x2="939.508497" y2="241.107374" />
<line stroke="black" stroke-width="2" x1="991.772729" y1="738.368322" x2="991.772729" y2="331.631678" />
<line stroke="black" stroke-width="2" x1="939.508497" y1="828.892626" x2="869.565303" y2="906.572413" />
<line stroke="black" stroke-width="2" x1="939.508497" y1="828.892626" x2="785.000000" y2="968.012702" />
<line stroke="black" stroke-width="2" x1="939.508497" y1="828.892626" x2="689.508497" y2="1010.528258" />
<line stroke="black" stroke-width="2" x1="939.508497" y1="828.892626" x2="587.264232" y2="1032.260948" />
<line stroke="black" stroke-width="2" x1="939.508497" y1="828.892626" x2="482.735768" y2="1032.260948" />
<line stroke="black" stroke-width="2" x1="939.508497" y1="828.892626" x2="380.491503" y2="1010.528258" />
<line stroke="black" stroke-width="2" x1="939.508497" y1="828.892626" x2="285.000000" y2="968.012702" />
<line stroke="black" stroke-width="2" x1="939.508497" y1="828.892626" x2="200.434697" y2="906.572413" />
<line stroke="black" stroke-width="2" x1="939.508497" y1="828.892626" x2="130.491503" y2="828.892626" />
<line stroke="black" stroke-width="2" x1="939.508497" y1="828.892626" x2="78.227271" y2="738.368322" />
<line stroke="black" stroke-width="2" x1="939.508497" y1="828.892626" x2="45.926200" y2="638.955845" />
<line stroke="black" stroke-width="2" x1="939.508497" y1="828.892626" x2="35.000000" y2="535.000000" />
<line stroke="black" stroke-width="2" x1="939.508497" y1="828.892626" x2="45.926200" y2="431.044155" />
<line stroke="black" stroke-width="2" x1="939.508497" y1="828.892626" x2="78.227271" y2="331.631678" />
<line stroke="black" stroke-width="2" x1="939.508497" y1="828.892626" x2="130.491503" y2="241.107374" />
<line stroke="black" stroke-width="2" x1="939.508497" y1="828.892626" x2="200.434697" y2="163.427587" />
<line stroke="black" stroke-width="2" x1="939.508497" y1="828.892626" x2="285.000000" y2="101.987298" />
<line stroke="black" stroke-width="2" x1="939.508497" y1="828.892626" x2="380.491503" y2="59.471742" />
<line stroke="black" stroke-width="2" x1="939.508497" y1="828.892626" x2="482.735768" y2="37.739052" />
<line stroke="black" stroke-width="2" x1="939.508497" y1="828.892626" x2="587.264232" y2="37.739052" />
<line stroke="black" stroke-width="2" x1="939.508497" y1="828.892626" x2="689.508497" y2="59.471742" />
<line stroke="black" stroke-width="2" x1="939.508497" y1="828.892626" x2="785.000000" y2="101.987298" />
<line stroke="black" stroke-width="2" x1="939.508497" y1="828.892626" x2="869.565303" y2="163.427587" />
<line stroke="black" stroke-width="2" x1="939.508497" y1="828.892626" x2="939.508497" y2="241.107374" />
<line stroke="black" stroke-width="2" x1="939.508497" y1="828.892626" x2="991.772729" y2="331.631678" />
<line stroke="black" stroke-width="2" x1="869.565303" y1="906.572413" x2="785.000000" y2="968.012702" />
<line stroke="black" stroke-width="2" x1="869.565303" y1="906.572413" x2="689.508497" y2="1010.528258" />
<line stroke="black" stroke-width="2" x1="869.565303" y1="906.572413" x2="587.264232" y2="1032.260948" />
<line stroke="black" stroke-width="2" x1="869.565303" y1="906.572413" x2="482.735768" y2="1032.260948" />
<line stroke="black" stroke-width="2" x1="869.565303" y1="906.572413" x2="380.491503" y2="1010.528258" />
<line stroke="black" stroke-width="2" x1="869.565303" y1="906.572413" x2="285.000000" y2="968.012702" />
<line stroke="black" stroke-width="2" x1="869.565303" y1="906.572413" x2="200.434697" y2="906.572413" />
<line stroke="black" stroke-width="2" x1="869.565303" y1="906.572413" x2="130.491503" y2="828.892626" />
<line stroke="black" stroke-width="2" x1="869.565303" y1="906.572413" x2="78.227271" y2="738.368322" />
<line stroke="black" stroke-width="2" x1="869.565303" y1="906.572413" x2="45.926200" y2="638.955845" />
<line stroke="black" stroke-width="2" x1="869.565303" y1="906.572413" x2="35.000000" y2="535.000000" />
<line stroke="black" stroke-width="2" x1="869.565303" y1="906.572413" x2="45.926200" y2="431.044155" />
<line stroke="black" stroke-width="2" x1="869.565303" y1="906.572413" x2="78.227271" y2="331.631678" />
<line stroke="black" stroke-width="2" x1="869.565303" y1="906.572413" x2="130.491503" y2="241.107374" />
<line stroke="black" stroke-width="2" x1="869.565303" y1="906.572413" x2="200.434697" y2="163.427587" />
<line stroke="black" stroke-width="2" x1="869.565303" y1="906.572413" x2="285.000000" y2="101.987298" />
<line stroke="black" stroke-width="2" x1="869.565303" y1="906.572413" x2="380.491503" y2="59.471742" />
<line stroke="black" stroke-width="2" x1="869.565303" y1="906.572413" x2="482.735768" y2="37.739052" />
<line stroke="black" stroke-width="2" x1="869.565303" y1="906.572413" x2="587.264232" y2="37.739052" />
<line stroke="black" stroke-width="2" x1="869.565303" y1="906.572413" x2="689.508497" y2="59.471742" />
<line stroke="black" stroke-width="2" x1="869.565303" y1="906.572413" x2="785.000000" y2="101.987298" />
<line stroke="black" stroke-width="2" x1="869.565303" y1="906.572413" x2="869.565303" y2="163.427587" />
<line stroke="black" stroke-width="2" x1="869.565303" y1="906.572413" x2="939.508497" y2="241.107374" />
<line stroke="black" stroke-width="2" x1="869.565303" y1="906.572413" x2="991.772729" y2="331.631678" />
<line stroke="black" stroke-width="2" x1="785.000000" y1="968.012702" x2="689.508497" y2="1010.528258" />
<line stroke="black" stroke-width="2" x1="785.000000" y1="968.012702" x2="587.264232" y2="1032.260948" />
<line stroke="black" stroke-width="2" x1="785.000000" y1="968.012702" x2="482.735768" y2="1032.260948" />
<line stroke="black" stroke-width="2" x1="785.000000" y1="968.012702" x2="380.491503" y2="1010.528258" />
<line stroke="black" stroke-width="2" x1="785.000000" y1="968.012702" x2="285.000000" y2="968.012702" />
<line stroke="black" stroke-width="2" x1="785.000000" y1="968.012702" x2="200.434697" y2="906.572413" />
<line stroke="black" stroke-width="2" x1="785.000000" y1="968.012702" x2="130.491503" y2="828.892626" />
<line stroke="black" stroke-width="2" x1="785.000000" y1="968.012702" x2="78.227271" y2="738.368322" />
<line stroke="black" stroke-width="2" x1="785.000000" y1="968.012702" x2="45.926200" y2="638.955845" />
<line stroke="black" stroke-width="2" x1="785.000000" y1="968.012702" x2="35.000000" y2="535.000000" />
<line stroke="black" stroke-width="2" x1="785.000000" y1="968.012702" x2="45.926200" y2="431.044155" />
<line stroke="black" stroke-width="2" x1="785.000000" y1="968.012702" x2="78.227271" y2="331.631678" />
<line stroke="black" stroke-width="2" x1="785.000000" y1="968.012702" x2="130.491503" y2="241.107374" />
<line stroke="black" stroke-width="2" x1="785.000000" y1="968.012702" x2="200.434697" y2="163.427587" />
<line stroke="black" stroke-width="2" x1="785.000000" y1="968.012702" x2="285.000000" y2="101.987298" />
<line stroke="black" stroke-width="2" x1="785.000000" y1="968.012702" x2="380.491503" y2="59.471742" />
<line stroke="black" stroke-width="2" x1="785.000000" y1="968.012702" x2="482.735768" y2="37.739052" />
<line stroke="black" stroke-width="2" x1="785.000000" y1="968.012702" x2="587.264232" y2="37.739052" />
<line stroke="black" stroke-width="2" x1="785.000000" y1="968.012702" x2="689.508497" y2="59.471742" />
<line stroke="black" stroke-width="2" x1="785.000000" y1="968.012702" x2="785.000000" y2="101.987298" />
<line stroke="black" stroke-width="2" x1="785.000000" y1="968.012702" x2="869.565303" y2="163.427587" />
<line stroke="black" stroke-width="2" x1="785.000000" y1="968.012702" x2="939.508497" y2="241.107374" />
<line stroke="black" stroke-width="2" x1="785.000000" y1="968.012702" x2="991.772729" y2="331.631678" />
<line stroke="black" stroke-width="2" x1="689.508497" y1="1010.528258" x2="587.264232" y2="1032.260948" />
<line stroke="black" stroke-width="2" x1="689.508497" y1="1010.528258" x2="482.735768" y2="1032.260948" />
<line stroke="black" stroke-width="2" x1="689.508497" y1="1010.528258" x2="380.491503" y2="1010.528258" />
<line stroke="black" stroke-width="2" x1="689.508497" y1="1010.528258" x2="285.000000" y2="968.012702" />
<line stroke="black" stroke-width="2" x1="689.508497" y1="1010.528258" x2="200.434697" y2="906.572413" />
<line stroke="black" stroke-width="2" x1="689.508497" y1="1010.528258" x2="130.491503" y2="828.892626" />
<line stroke="black" stroke-width="2" x1="689.508497" y1="1010.528258" x2="78.227271" y2="738.368322" />
<line stroke="black" stroke-width="2" x1="689.508497" y1="1010.528258" x2="45.926200" y2="638.955845" />
<line stroke="black" stroke-width="2" x1="689.508497" y1="1010.528258" x2="35.000000" y2="535.000000" />
<line stroke="black" stroke-width="2" x1="689.508497" y1="1010.528258" x2="45.926200" y2="431.044155" />
<line stroke="black" stroke-width="2" x1="689.508497" y1="1010.528258" x2="78.227271" y2="331.631678" />
<line stroke="black" stroke-width="2" x1="689.508497" y1="1010.528258" x2="130.491503" y2="241.107374" />
<line stroke="black" stroke-width="2" x1="689.508497" y1="1010.528258" x2="200.434697" y2="163.427587" />
<line stroke="black" stroke-width="2" x1="689.508497" y1="1010.528258" x2="285.000000" y2="101.987298" />
<line stroke="black" stroke-width="2" x1="689.508497" y1="1010.528258" x2="380.491503" y2="59.471742" />
<line stroke="black" stroke-width="2" x1="689.508497" y1="1010.528258" x2="482.735768" y2="37.739052" />
<line stroke="black" stroke-width="2" x1="689.508497" y1="1010.528258" x2="587.264232" y2="37.739052" />
<line stroke="black" stroke-width="2" x1="689.508497" y1="1010.528258" x2="689.508497" y2="59.471742" />
<line stroke="black" stroke-width="2" x1="689.508497" y1="1010.528258" x2="785.000000" y2="101.987298" />
<line stroke="black" stroke-width="2" x1="689.508497" y1="1010.528258" x2="869.565303" y2="163.427587" />
<line stroke="black" stroke-width="2" x1="689.508497" y1="1010.528258" x2="939.508497" y2="241.107374" />
<line stroke="black" stroke-width="2" x1="689.508497" y1="1010.528258" x2="991.772729" y2="331.631678" />
<line stroke="black" stroke-width="2" x1="587.264232" y1="1032.260948" x2="482.735768" y2="1032.260948" />
<line stroke="black" stroke-width="2" x1="587.264232" y1="1032.260948" x2="380.491503" y2="1010.528258" />
<line stroke="black" stroke-width="2" x1="587.264232" y1="1032.260948" x2="285.000000" y2="968.012702" />
<line stroke="black" stroke-width="2" x1="587.264232" y1="1032.260948" x2="200.434697" y2="906.572413" />
<line stroke="black" stroke-width="2" x1="587.264232" y1="1032.260948" x2="130.491503" y2="828.892626" />
<line stroke="black" stroke-width="2" x1="587.264232" y1="1032.260948" x2="78.227271" y2="738.368322" />
<line stroke="black" stroke-width="2" x1="587.264232" y1="1032.260948" x2="45.926200" y2="638.955845" />
<line stroke="black" stroke-width="2" x1="587.264232" y1="1032.260948" x2="35.000000" y2="535.000000" />
<line stroke="black" stroke-width="2" x1="587.264232" y1="1032.260948" x2="45.926200" y2="431.044155" />
<line stroke="black" stroke-width="2" x1="587.264232" y1="1032.260948" x2="78.227271" y2="331.631678" />
<line stroke="black" stroke-width="2" x1="587.264232" y1="1032.260948" x2="130.491503" y2="241.107374" />
<line stroke="black" stroke-width="2" x1="587.264232" y1="1032.260948" x2="200.434697" y2="163.427587" />
<line stroke="black" stroke-width="2" x1="587.264232" y1="1032.260948" x2="285.000000" y2="101.987298" />
<line stroke="black" stroke-width="2" x1="587.264232" y1="1032.260948" x2="380.491503" y2="59.471742" />
<line stroke="black" stroke-width="2" x1="587.264232" y1="1032.260948" x2="482.735768" y2="37.739052" />
<line stroke="black" stroke-width="2" x1="587.264232" y1="1032.260948" x2="587.264232" y2="37.739052" />
<line stroke="black" stroke-width="2" x1="587.264232" y1="1032.260948" x2="689.508497" y2="59.471742" />
<line stroke="black" stroke-width="2" x1="587.264232" y1="1032.260948" x2="785.000000" y2="101.987298" />
<line stroke="black" stroke-width="2" x1="587.264232" y1="1032.260948" x2="869.565303" y2="163.427587" />
<line stroke="black" stroke-width="2" x1="587.264232" y1="1032.260948" x2="939.508497" y2="241.107374" />
<line stroke="black" stroke-width="2" x1="587.264232" y1="1032.260948" x2="991.772729" y2="331.631678" />
<line stroke="black" stroke-width="2" x1="482.735768" y1="1032.260948" x2="380.491503" y2="1010.528258" />
<line stroke="black" stroke-width="2" x1="482.735768" y1="1032.260948" x2="285.000000" y2="968.012702" />
<line stroke="black" stroke-width="2" x1="482.735768" y1="1032.260948" x2="200.434697" y2="906.572413" />
<line stroke="black" stroke-width="2" x1="482.735768" y1="1032.260948" x2="130.491503" y2="828.892626" />
<line stroke="black" stroke-width="2" x1="482.735768" y1="1032.260948" x2="78.227271" y2="738.368322" />
<line stroke="black" stroke-width="2" x1="482.735768" y1="1032.260948" x2="45.926200" y2="638.955845" />
<line stroke="black" stroke-width="2" x1="482.735768" y1="1032.260948" x2="35.000000" y2="535.000000" />
<line stroke="black" stroke-width="2" x1="482.735768" y1="1032.260948" x2="45.926200" y2="431.044155" />
<line stroke="black" stroke-width="2" x1="482.735768" y1="1032.260948" x2="78.227271" y2="331.631678" />
<line stroke="black" stroke-width="2" x1="482.735768" y1="1032.260948" x2="130.491503" y2="241.107374" />
<line stroke="black" stroke-width="2" x1="482.735768" y1="1032.260948" x2="200.434697" y2="163.427587" />
<line stroke="black" stroke-width="2" x1="482.735768" y1="1032.260948" x2="285.000000" y2="101.987298" />
<line stroke="black" stroke-width="2" x1="482.735768" y1="1032.260948" x2="380.491503" y2="59.471742" />
<line stroke="black" stroke-width="2" x1="482.735768" y1="1032.260948" x2="482.735768" y2="37.739052" />
<line stroke="black" stroke-width="2" x1="482.735768" y1="1032.260948" x2="587.264232" y2="37.739052" />
<line stroke="black" stroke-width="2" x1="482.735768" y1="1032.260948" x2="689.508497" y2="59.471742" />
<line stroke="black" stroke-width="2" x1="482.735768" y1="1032.260948" x2="785.000000" y2="101.987298" />
<line stroke="black" stroke-width="2" x1="482.735768" y1="1032.260948" x2="869.565303" y2="163.427587" />
<line stroke="black" stroke-width="2" x1="482.735768" y1="1032.260948" x2="939.508497" y2="241.107374" />
<line stroke="black" stroke-width="2" x1="482.735768" y1="1032.260948" x2="991.772729" y2="331.631678" />
<line stroke="black" stroke-width="2" x1="380.491503" y1="1010.528258" x2="285.000000" y2="968.012702" />
<line stroke="black" stroke-width="2" x1="380.491503" y1="1010.528258" x2="200.434697" y2="906.572413" />
<line stroke="black" stroke-width="2" x1="380.491503" y1="1010.528258" x2="130.491503" y2="828.892626" />
<line stroke="black" stroke-width="2" x1="380.491503" y1="1010.528258" x2="78.227271" y2="738.368322" />
<line stroke="black" stroke-width="2" x1="380.491503" y1="1010.528258" x2="45.926200" y2="638.955845" />
<line stroke="black" stroke-width="2" x1="380.491503" y1="1010.528258" x2="35.000000" y2="535.000000" />
<line stroke="black" stroke-width="2" x1="380.491503" y1="1010.528258" x2="45.926200" y2="431.044155" />
<line stroke="black" stroke-width="2" x1="380.491503" y1="1010.528258" x2="78.227271" y2="331.631678" />
<line stroke="black" stroke-width="2" x1="380.491503" y1="1010.528258" x2="130.491503" y2="241.107374" />
<line stroke="black" stroke-width="2" x1="380.491503" y1="1010.528258" x2="200.434697" y2="163.427587" />
<line stroke="black" stroke-width="2" x1="380.491503" y1="1010.528258" x2="285.000000" y2="101.987298" />
<line stroke="black" stroke-width="2" x1="380.491503" y1="1010.528258" x2="380.491503" y2="59.471742" />
<line stroke="black" stroke-width="2" x1="380.491503" y1="1010.528258" x2="482.735768" y2="37.739052" />
<line stroke="black" stroke-width="2" x1="380.491503" y1="1010.528258" x2="587.264232" y2="37.739052" />
<line stroke="black" stroke-width="2" x1="380.491503" y1="1010.528258" x2="689.508497" y2="59.471742" />
<line stroke="black" stroke-width="2" x1="380.491503" y1="1010.528258" x2="785.000000" y2="101.987298" />
<line stroke="black" stroke-width="2" x1="380.491503" y1="1010.528258" x2="869.565303" y2="163.427587" />
<line stroke="black" stroke-width="2" x1="380.491503" y1="1010.528258" x2="939.508497" y2="241.107374" />
<line stroke="black" stroke-width="2" x1="380.491503" y1="1010.528258" x2="991.772729" y2="331.631678" />
<line stroke="black" stroke-width="2" x1="285.000000" y1="968.012702" x2="200.434697" y2="906.572413" />
<line stroke="black" stroke-width="2" x1="285.000000" y1="968.012702" x2="130.491503" y2="828.892626" />
<line stroke="black" stroke-width="2" x1="285.000000" y1="968.012702" x2="78.227271" y2="738.368322" />
<line stroke="black" stroke-width="2" x1="285.000000" y1="968.012702" x2="45.926200" y2="638.955845" />
<line stroke="black" stroke-width="2" x1="285.000000" y1="968.012702" x2="35.000000" y2="535.000000" />
<line stroke="black" stroke-width="2" x1="285.000000" y1="968.012702" x2="45.926200" y2="431.044155" />
<line stroke="black" stroke-width="2" x1="285.000000" y1="968.012702" x2="78.227271" y2="331.631678" />
<line stroke="black" stroke-width="2" x1="285.000000" y1="968.012702" x2="130.491503" y2="241.107374" />
<line stroke="black" stroke-width="2" x1="285.000000" y1="968.012702" x2="200.434697" y2="163.427587" />
<line stroke="black" stroke-width="2" x1="285.000000" y1="968.012702" x2="285.000000" y2="101.987298" />
<line stroke="black" stroke-width="2" x1="285.000000" y1="968.012702" x2="380.491503" y2="59.471742" />
<line stroke="black" stroke-width="2" x1="285.000000" y1="968.012702" x2="482.735768" y2="37.739052" />
<line stroke="black" stroke-width="2" x1="285.000000" y1="968.012702" x2="587.264232" y2="37.739052" />
<line stroke="black" stroke-width="2" x1="285.000000" y1="968.012702" x2="689.508497" y2="59.471742" />
<line stroke="black" stroke-width="2" x1="285.000000" y1="968.012702" x2="785.000000" y2="101.987298" />
<line stroke="black" stroke-width="2" x1="285.000000" y1="968.012702" x2="869.565303" y2="163.427587" />
<line stroke="black" stroke-width="2" x1="285.000000" y1="968.012702" x2="939.508497" y2="241.107374" />
<line stroke="black" stroke-width="2" x1="285.000000" y1="968.012702" x2="991.772729" y2="331.631678" />
<line stroke="black" stroke-width="2" x1="200.434697" y1="906.572413" x2="130.491503" y2="828.892626" />
<line stroke="black" stroke-width="2" x1="200.434697" y1="906.572413" x2="78.227271" y2="738.368322" />
<line stroke="black" stroke-width="2" x1="200.434697" y1="906.572413" x2="45.926200" y2="638.955845" />
<line stroke="black" stroke-width="2" x1="200.434697" y1="906.572413" x2="35.000000" y2="535.000000" />
<line stroke="black" stroke-width="2" x1="200.434697" y1="906.572413" x2="45.926200" y2="431.044155" />
<line stroke="black" stroke-width="2" x1="200.434697" y1="906.572413" x2="78.227271" y2="331.631678" />
<line stroke="black" stroke-width="2" x1="200.434697" y1="906.572413" x2="130.491503" y2="241.107374" />
<line stroke="black" stroke-width="2" x1="200.434697" y1="906.572413" x2="200.434697" y2="163.427587" />
<line stroke="black" stroke-width="2" x1="200.434697" y1="906.572413" x2="285.000000" y2="101.987298" />
<line stroke="black" stroke-width="2" x1="200.434697" y1="906.572413" x2="380.491503" y2="59.471742" />
<line stroke="black" stroke-width="2" x1="200.434697" y1="906.572413" x2="482.735768" y2="37.739052" />
<line stroke="black" stroke-width="2" x1="200.434697" y1="906.572413" x2="587.264232" y2="37.739052" />
<line stroke="black" stroke-width="2" x1="200.434697" y1="906.572413" x2="689.508497" y2="59.471742" />
<line stroke="black" stroke-width="2" x1="200.434697" y1="906.572413" x2="785.000000" y2="101.987298" />
<line stroke="black" stroke-width="2" x1="200.434697" y1="906.572413" x2="869.565303" y2="163.427587" />
<line stroke="black" stroke-width="2" x1="200.434697" y1="906.572413" x2="939.508497" y2="241.107374" />
<line stroke="black" stroke-width="2" x1="200.434697" y1="906.572413" x2="991.772729" y2="331.631678" />
<line stroke="black" stroke-width="2" x1="130.491503" y1="828.892626" x2="78.227271" y2="738.368322" />
<line stroke="black" stroke-width="2" x1="130.491503" y1="828.892626" x2="45.926200" y2="638.955845" />
<line stroke="black" stroke-width="2" x1="130.491503" y1="828.892626" x2="35.000000" y2="535.000000" />
<line stroke="black" stroke-width="2" x1="130.491503" y1="828.892626" x2="45.926200" y2="431.044155" />
<line stroke="black" stroke-width="2" x1="130.491503" y1="828.892626" x2="78.227271" y2="331.631678" />
<line stroke="black" stroke-width="2" x1="130.491503" y1="828.892626" x2="130.491503" y2="241.107374" />
<line stroke="black" stroke-width="2" x1="130.491503" y1="828.892626" x2="200.434697" y2="163.427587" />
<line stroke="black" stroke-width="2" x1="130.491503" y1="828.892626" x2="285.000000" y2="101.987298" />
<line stroke="black" stroke-width="2" x1="130.491503" y1="828.892626" x2="380.491503" y2="59.471742" />
<line stroke="black" stroke-width="2" x1="130.491503" y1="828.892626" x2="482.735768" y2="37.739052" />
<line stroke="black" stroke-width="2" x1="130.491503" y1="828.892626" x2="587.264232" y2="37.739052" />
<line stroke="black" stroke-width="2" x1="130.491503" y1="828.892626" x2="689.508497" y2="59.471742" />
<line stroke="black" stroke-width="2" x1="130.491503" y1="828.892626" x2="785.000000" y2="101.987298" />
<line stroke="black" stroke-width="2" x1="130.491503" y1="828.892626" x2="869.565303" y2="163.427587" />
<line stroke="black" stroke-width="2" x1="130.491503" y1="828.892626" x2="939.508497" y2="241.107374" />
<line stroke="black" stroke-width="2" x1="130.491503" y1="828.892626" x2="991.772729" y2="331.631678" />
<line stroke="black" stroke-width="2" x1="78.227271" y1="738.368322" x2="45.926200" y2="638.955845" />
<line stroke="black" stroke-width="2" x1="78.227271" y1="738.368322" x2="35.000000" y2="535.000000" />
<line stroke="black" stroke-width="2" x1="78.227271" y1="738.368322" x2="45.926200" y2="431.044155" />
<line stroke="black" stroke-width="2" x1="78.227271" y1="738.368322" x2="78.227271" y2="331.631678" />
<line stroke="black" stroke-width="2" x1="78.227271" y1="738.368322" x2="130.491503" y2="241.107374" />
<line stroke="black" stroke-width="2" x1="78.227271" y1="738.368322" x2="200.434697" y2="163.427587" />
<line stroke="black" stroke-width="2" x1="78.227271" y1="738.368322" x2="285.000000" y2="101.987298" />
<line stroke="black" stroke-width="2" x1="78.227271" y1="738.368322" x2="380.491503" y2="59.471742" />
<line stroke="black" stroke-width="2" x1="78.227271" y1="738.368322" x2="482.735768" y2="37.739052" />
<line stroke="black" stroke-width="2" x1="78.227271" y1="738.368322" x2="587.264232" y2="37.739052" />
<line stroke="black" stroke-width="2" x1="78.227271" y1="738.368322" x2="689.508497" y2="59.471742" />
<line stroke="black" stroke-width="2" x1="78.227271" y1="738.368322" x2="785.000000" y2="101.987298" />
<line stroke="black" stroke-width="2" x1="78.227271" y1="738.368322" x2="869.565303" y2="163.427587" />
<line stroke="black" stroke-width="2" x1="78.227271" y1="738.368322" x2="939.508497" y2="241.107374" />
<line stroke="black" stroke-width="2" x1="78.227271" y1="738.368322" x2="991.772729" y2="331.631678" />
<line stroke="black" stroke-width="2" x1="45.926200" y1="638.955845" x2="35.000000" y2="535.000000" />
<line stroke="black" stroke-width="2" x1="45.926200" y1="638.955845" x2="45.926200" y2="431.044155" />
<line stroke="black" stroke-width="2" x1="45.926200" y1="638.955845" x2="78.227271" y2="331.631678" />
<line stroke="black" stroke-width="2" x1="45.926200" y1="638.955845" x2="130.491503" y2="241.107374" />
<line stroke="black" stroke-width="2" x1="45.926200" y1="638.955845" x2="200.434697" y2="163.427587" />
<line stroke="black" stroke-width="2" x1="45.926200" y1="638.955845" x2="285.000000" y2="101.987298" />
<line stroke="black" stroke-width="2" x1="45.926200" y1="638.955845" x2="380.491503" y2="59.471742" />
<line stroke="black" stroke-width="2" x1="45.926200" y1="638.955845" x2="482.735768" y2="37.739052" />
<line stroke="black" stroke-width="2" x1="45.926200" y1="638.955845" x2="587.264232" y2="37.739052" />
<line stroke="black" stroke-width="2" x1="45.926200" y1="638.955845" x2="689.508497" y2="59.471742" />
<line stroke="black" stroke-width="2" x1="45.926200" y1="638.955845" x2="785.000000" y2="101.987298" />
<line stroke="black" stroke-width="2" x1="45.926200" y1="638.955845" x2="869.565303" y2="163.427587" />
<line stroke="black" stroke-width="2" x1="45.926200" y1="638.955845" x2="939.508497" y2="241.107374" />
<line stroke="black" stroke-width="2" x1="45.926200" y1="638.955845" x2="991.772729" y2="331.631678" />
<line stroke="black" stroke-width="2" x1="35.000000" y1="535.000000" x2="45.926200" y2="431.044155" />
<line stroke="black" stroke-width="2" x1="35.000000" y1="535.000000" x2="78.227271" y2="331.631678" />
<line stroke="black" stroke-width="2" x1="35.000000" y1="535.000000" x2="130.491503" y2="241.107374" />
<line stroke="black" stroke-width="2" x1="35.000000" y1="535.000000" x2="200.434697" y2="163.427587" />
<line stroke="black" stroke-width="2" x1="35.000000" y1="535.000000" x2="285.000000" y2="101.987298" />
<line stroke="black" stroke-width="2" x1="35.000000" y1="535.000000" x2="380.491503" y2="59.471742" />
<line stroke="black" stroke-width="2" x1="35.000000" y1="535.000000" x2="482.735768" y2="37.739052" />
<line stroke="black" stroke-width="2" x1="35.000000" y1="535.000000" x2="587.264232" y2="37.739052" />
<line stroke="black" stroke-width="2" x1="35.000000" y1="535.000000" x2="689.508497" y2="59.471742" />
<line stroke="black" stroke-width="2" x1="35.000000" y1="535.000000" x2="785.000000" y2="101.987298" />
<line stroke="black" stroke-width="2" x1="35.000000" y1="535.000000" x2="869.565303" y2="163.427587" />
<line stroke="black" stroke-width="2" x1="35.000000" y1="535.000000" x2="939.508497" y2="241.107374" />
<line stroke="black" stroke-width="2" x1="35.000000" y1="535.000000" x2="991.772729" y2="331.631678" />
<line stroke="black" stroke-width="2" x1="45.926200" y1="431.044155" x2="78.227271" y2="331.631678" />
<line stroke="black" stroke-width="2" x1="45.926200" y1="431.044155" x2="130.491503" y2="241.107374" />
<line stroke="black" stroke-width="2" x1="45.926200" y1="431.044155" x2="200.434697" y2="163.427587" />
<line stroke="black" stroke-width="2" x1="45.926200" y1="431.044155" x2="285.000000" y2="101.987298" />
<line stroke="black" stroke-width="2" x1="45.926200" y1="431.044155" x2="380.491503" y2="59.471742" />
<line stroke="black" stroke-width="2" x1="45.926200" y1="431.044155" x2="482.735768" y2="37.739052" />
<line stroke="black" stroke-width="2" x1="45.926200" y1="431.044155" x2="587.264232" y2="37.739052" />
<line stroke="black" stroke-width="2" x1="45.926200" y1="431.044155" x2="689.508497" y2="59.471742" />
<line stroke="black" stroke-width="2" x1="45.926200" y1="431.044155" x2="785.000000" y2="101.987298" />
<line stroke="black" stroke-width="2" x1="45.926200" y1="431.044155" x2="869.565303" y2="163.427587" />
<line stroke="black" stroke-width="2" x1="45.926200" y1="431.044155" x2="939.508497" y2="241.107374" />
<line stroke="black" stroke-width="2" x1="45.926200" y1="431.044155" x2="991.772729" y2="331.631678" />
<line stroke="black" stroke-width="2" x1="78.227271" y1="331.631678" x2="130.491503" y2="241.107374" />
<line stroke="black" stroke-width="2" x1="78.227271" y1="331.631678" x2="200.434697" y2="163.427587" />
<line stroke="black" stroke-width="2" x1="78.227271" y1="331.631678" x2="285.000000" y2="101.987298" />
<line stroke="black" stroke-width="2" x1="78.227271" y1="331.631678" x2="380.491503" y2="59.471742" />
<line stroke="black" stroke-width="2" x1="78.227271" y1="331.631678" x2="482.735768" y2="37.739052" />
<line stroke="black" stroke-width="2" x1="78.227271" y1="331.631678" x2="587.264232" y2="37.739052" />
<line stroke="black" stroke-width="2" x1="78.227271" y1="331.631678" x2="689.508497" y2="59.471742" />
<line stroke="black" stroke-width="2" x1="78.227271" y1="331.631678" x2="785.000000" y2="101.987298" />
<line stroke="black" stroke-width="2" x1="78.227271" y1="331.631678" x2="869.565303" y2="163.427587" />
<line stroke="black" stroke-width="2" x1="78.227271" y1="331.631678" x2="939.508497" y2="241.107374" />
<line stroke="black" stroke-width="2" x1="78.227271" y1="331.631678" x2="991.772729" y2="331.631678" />
<line stroke="black" stroke-width="2" x1="130.491503" y1="241.107374" x2="200.434697" y2="163.427587" />
<line stroke="black" stroke-width="2" x1="130.491503" y1="241.107374" x2="285.000000" y2="101.987298" />
<line stroke="black" stroke-width="2" x1="130.491503" y1="241.107374" x2="380.491503" y2="59.471742" />
<line stroke="black" stroke-width="2" x1="130.491503" y1="241.107374" x2="482.735768" y2="37.739052" />
<line stroke="black" stroke-width="2" x1="130.491503" y1="241.107374" x2="587.264232" y2="37.739052" />
<line stroke="black" stroke-width="2" x1="130.491503" y1="241.107374" x2="689.508497" y2="59.471742" />
<line stroke="black" stroke-width="2" x1="130.491503" y1="241.107374" x2="785.000000" y2="101.987298" />
<line stroke="black" stroke-width="2" x1="130.491503" y1="241.107374" x2="869.565303" y2="163.427587" />
<line stroke="black" stroke-width="2" x1="130.491503" y1="241.107374" x2="939.508497" y2="241.107374" />
<line stroke="black" stroke-width="2" x1="130.491503" y1="241.107374" x2="991.772729" y2="331.631678" />
<line stroke="black" stroke-width="2" x1="200.434697" y1="163.427587" x2="285.000000" y2="101.987298" />
<line stroke="black" stroke-width="2" x1="200.434697" y1="163.427587" x2="380.491503" y2="59.471742" />
<line stroke="black" stroke-width="2" x1="200.434697" y1="163.427587" x2="482.735768" y2="37.739052" />
<line stroke="black" stroke-width="2" x1="200.434697" y1="163.427587" x2="587.264232" y2="37.739052" />
<line stroke="black" stroke-width="2" x1="200.434697" y1="163.427587" x2="689.508497" y2="59.471742" />
<line stroke="black" stroke-width="2" x1="200.434697" y1="163.427587" x2="785.000000" y2="101.987298" />
<line stroke="black" stroke-width="2" x1="200.434697" y1="163.427587" x2="869.565303" y2="163.427587" />
<line stroke="black" stroke-width="2" x1="200.434697" y1="163.427587" x2="939.508497" y2="241.107374" />
<line stroke="black" stroke-width="2" x1="200.434697" y1="163.427587" x2="991.772729" y2="331.631678" />
<line stroke="black" stroke-width="2" x1="285.000000" y1="101.987298" x2="380.491503" y2="59.471742" />
<line stroke="black" stroke-width="2" x1="285.000000" y1="101.987298" x2="482.735768" y2="37.739052" />
<line stroke="black" stroke-width="2" x1="285.000000" y1="101.987298" x2="587.264232" y2="37.739052" />
<line stroke="black" stroke-width="2" x1="285.000000" y1="101.987298" x2="689.508497" y2="59.471742" />
<line stroke="black" stroke-width="2" x1="285.000000" y1="101.987298" x2="785.000000" y2="101.987298" />
<line stroke="black" stroke-width="2" x1="285.000000" y1="101.987298" x2="869.565303" y2="163.427587" />
<line stroke="black" stroke-width="2" x1="285.000000" y1="101.987298" x2="939.508497" y2="241.107374" />
<line stroke="black" stroke-width="2" x1="285.000000" y1="101.987298" x2="991.772729" y2="331.631678" />
<line stroke="black" stroke-width="2" x1="380.491503" y1="59.471742" x2="482.735768" y2="37.739052" />
<line stroke="black" stroke-width="2" x1="380.491503" y1="59.471742" x2="587.264232" y2="37.739052" />
<line stroke="black" stroke-width="2" x1="380.491503" y1="59.471742" x2="689.508497" y2="59.471742" />
<line stroke="black" stroke-width="2" x1="380.491503" y1="59.471742" x2="785.000000" y2="101.987298" />
<line stroke="black" stroke-width="2" x1="380.491503" y1="59.471742" x2="869.565303" y2="163.427587" />
<line stroke="black" stroke-width="2" x1="380.491503" y1="59.471742" x2="939.508497" y2="241.107374" />
<line stroke="black" stroke-width="2" x1="380.491503" y1="59.471742" x2="991.772729" y2="331.631678" />
<line stroke="black" stroke-width="2" x1="482.735768" y1="37.739052" x2="587.264232" y2="37.739052" />
<line stroke="black" stroke-width="2" x1="482.735768" y1="37.739052" x2="689.508497" y2="59.471742" />
<line stroke="black" stroke-width="2" x1="482.735768" y1="37.739052" x2="785.000000" y2="101.987298" />
<line stroke="black" stroke-width="2" x1="482.735768" y1="37.739052" x2="869.565303" y2="163.427587" />
<line stroke="black" stroke-width="2" x1="482.735768" y1="37.739052" x2="939.508497" y2="241.107374" />
<line stroke="black" stroke-width="2" x1="482.735768" y1="37.739052" x2="991.772729" y2="331.631678" />
<line stroke="black" stroke-width="2" x1="587.264232" y1="37.739052" x2="689.508497" y2="59.471742" />
<line stroke="black" stroke-width="2" x1="587.264232" y1="37.739052" x2="785.000000" y2="101.987298" />
<line stroke="black" stroke-width="2" x1="587.264232" y1="37.739052" x2="869.565303" y2="163.427587" />
<line stroke="black" stroke-width="2" x1="587.264232" y1="37.739052" x2="939.508497" y2="241.107374" />
<line stroke="black" stroke-width="2" x1="587.264232" y1="37.739052" x2="991.772729" y2="331.631678" />
<line stroke="black" stroke-width="2" x1="689.508497" y1="59.471742" x2="785.000000" y2="101.987298" />
<line stroke="black" stroke-width="2" x1="689.508497" y1="59.471742" x2="869.565303" y2="163.427587" />
<line stroke="black" stroke-width="2" x1="689.508497" y1="59.471742" x2="939.508497" y2="241.107374" />
<line stroke="black" stroke-width="2" x1="689.508497" y1="59.471742" x2="991.772729" y2="331.631678" />
<line stroke="black" stroke-width="2" x1="785.000000" y1="101.987298" x2="869.565303" y2="163.427587" />
<line stroke="black" stroke-width="2" x1="785.000000" y1="101.987298" x2="939.508497" y2="241.107374" />
<line stroke="black" stroke-width="2" x1="785.000000" y1="101.987298" x2="991.772729" y2="331.631678" />
<line stroke="black" stroke-width="2" x1="869.565303" y1="163.427587" x2="939.508497" y2="241.107374" />
<line stroke="black" stroke-width="2" x1="869.565303" y1="163.427587" x2="991.772729" y2="331.631678" />
<line stroke="black" stroke-width="2" x1="939.508497" y1="241.107374" x2="991.772729" y2="331.631678" />

		<circle cx="1035.000000" cy="535.000000" r="25" fill="white" stroke="black" stroke-width="2"/>
		<text x="1035.000000" y="543.000000" fill="black" font-family="sans-serif" font-size="25" text-anchor="middle">1</text>
		<circle cx="1024.073800" cy="638.955845" r="25" fill="white" stroke="black" stroke-width="2"/>
		<text x="1024.073800" y="646.955845" fill="black" font-family="sans-serif" font-size="25" text-anchor="middle">2</text>
		<circle cx="991.772729" cy="738.368322" r="25" fill="white" stroke="black" stroke-width="2"/>
		<text x="991.772729" y="746.368322" fill="black" font-family="sans-serif" font-size="25" text-anchor="middle">3</text>
		<circle cx="939.508497" cy="828.892626" r="25" fill="white" stroke="black" stroke-width="2"/>
		<text x="939.508497" y="836.892626" fill="black" font-family="sans-serif" font-size="25" text-anchor="middle">4</text>
		<circle cx="869.565303" cy="906.572413" r="25" fill="white" stroke="black" stroke-width="2"/>
		<text x="869.565303" y="914.572413" fill="black" font-family="sans-serif" font-size="25" text-anchor="middle">5</text>
		<circle cx="785.000000" cy="968.012702" r="25" fill="white" stroke="black" stroke-width="2"/>
		<text x="785.000000" y="976.012702" fill="black" font-family="sans-serif" font-size="25" text-anchor="middle">6</text>
		<circle cx="689.508497" cy="1010.528258" r="25" fill="white" stroke="black" stroke-width="2"/>
		<text x="689.508497" y="1018.528258" fill="black" font-family="sans-serif" font-size="25" text-anchor="middle">7</text>
		<circle cx="587.264232" cy="1032.260948" r="25" fill="white" stroke="black" stroke-width="2"/>
		<text x="587.264232" y="1040.260948" fill="black" font-family="sans-serif" font-size="25" text-anchor="middle">8</text>
		<circle cx="482.735768" cy="1032.260948" r="25" fill="white" stroke="black" stroke-width="2"/>
		<text x="482.735768" y="1040.260948" fill="black" font-family="sans-serif" font-size="25" text-anchor="middle">9</text>
		<circle cx="380.491503" cy="1010.528258" r="25" fill="white" stroke="black" stroke-width="2"/>
		<text x="380.491503" y="1018.528258" fill="black" font-family="sans-serif" font-size="25" text-anchor="middle">10</text>
		<circle cx="285.000000" cy="968.012702" r="25" fill="white" stroke="black" stroke-width="2"/>
		<text x="285.000000" y="976.012702" fill="black" font-family="sans-serif" font-size="25" text-anchor="middle">11</text>
		<circle cx="200.434697" cy="906.572413" r="25" fill="white" stroke="black" stroke-width="2"/>
		<text x="200.434697" y="914.572413" fill="black" font-family="sans-serif" font-size="25" text-anchor="middle">12</text>
		<circle cx="130.491503" cy="828.892626" r="25" fill="white" stroke="black" stroke-width="2"/>
		<text x="130.491503" y="836.892626" fill="black" font-family="sans-serif" font-size="25" text-anchor="middle">13</text>
		<circle cx="78.227271" cy="738.368322" r="25" fill="white" stroke="black" stroke-width="2"/>
		<text x="78.227271" y="746.368322" fill="black" font-family="sans-serif" font-size="25" text-anchor="middle">14</text>
		<circle cx="45.926200" cy="638.955845" r="25" fill="white" stroke="black" stroke-width="2"/>
		<text x="45.926200" y="646.955845" fill="black" font-family="sans-serif" font-size="25" text-anchor="middle">15</text>
		<circle cx="35.000000" cy="535.000000" r="25" fill="white" stroke="black" stroke-width="2"/>
		<text x="35.000000" y="543.000000" fill="black" font-family="sans-serif" font-size="25" text-anchor="middle">16</text>
		<circle cx="45.926200" cy="431.044155" r="25" fill="white" stroke="black" stroke-width="2"/>
		<text x="45.926200" y="439.044155" fill="black" font-family="sans-serif" font-size="25" text-anchor="middle">17</text>
		<circle cx="78.227271" cy="331.631678" r="25" fill="white" stroke="black" stroke-width="2"/>
		<text x="78.227271" y="339.631678" fill="black" font-family="sans-serif" font-size="25" text-anchor="middle">18</text>
		<circle cx="130.491503" cy="241.107374" r="25" fill="white" stroke="black" stroke-width="2"/>
		<text x="130.491503" y="249.107374" fill="black" font-family="sans-serif" font-size="25" text-anchor="middle">19</text>
		<circle cx="200.434697" cy="163.427587" r="25" fill="white" stroke="black" stroke-width="2"/>
		<text x="200.434697" y="171.427587" fill="black" font-family="sans-serif" font-size="25" text-anchor="middle">20</text>
		<circle cx="285.000000" cy="101.987298" r="25" fill="white" stroke="black" stroke-width="2"/>
		<text x="285.000000" y="109.987298" fill="black" font-family="sans-serif" font-size="25" text-anchor="middle">21</text>
		<circle cx="380.491503" cy="59.471742" r="25" fill="white" stroke="black" stroke-width="2"/>
		<text x="380.491503" y="67.471742" fill="black" font-family="sans-serif" font-size="25" text-anchor="middle">22</text>
		<circle cx="482.735768" cy="37.739052" r="25" fill="white" stroke="black" stroke-width="2"/>
		<text x="482.735768" y="45.739052" fill="black" font-family="sans-serif" font-size="25" text-anchor="middle">23</text>
		<circle cx="587.264232" cy="37.739052" r="25" fill="white" stroke="black" stroke-width="2"/>
		<text x="587.264232" y="45.739052" fill="black" font-family="sans-serif" font-size="25" text-anchor="middle">24</text>
		<circle cx="689.508497" cy="59.471742" r="25" fill="white" stroke="black" stroke-width="2"/>
		<text x="689.508497" y="67.471742" fill="black" font-family="sans-serif" font-size="25" text-anchor="middle">25</text>
		<circle cx="785.000000" cy="101.987298" r="25" fill="white" stroke="black" stroke-width="2"/>
		<text x="785.000000" y="109.987298" fill="black" font-family="sans-serif" font-size="25" text-anchor="middle">26</text>
		<circle cx="869.565303" cy="163.427587" r="25" fill="white" stroke="black" stroke-width="2"/>
		<text x="869.565303" y="171.427587" fill="black" font-family="sans-serif" font-size="25" text-anchor="middle">27</text>
		<circle cx="939.508497" cy="241.107374" r="25" fill="white" stroke="black" stroke-width="2"/>
		<text x="939.508497" y="249.107374" fill="black" font-family="sans-serif" font-size="25" text-anchor="middle">28</text>
		<circle cx="991.772729" cy="331.631678" r="25" fill="white" stroke="black" stroke-width="2"/>
		<text x="991.772729" y="339.631678" fill="black" font-family="sans-serif" font-size="25" text-anchor="middle">29</text>
	</g>
</svg>