<?xml version='1.0' encoding='UTF-8' ?>
<svg height="60" width="800">
	<defs>
		<g id="arrow">
			<text x="0" y="0" fill="black" font-family="sans-serif" font-size="21" text-anchor="middle">↔</text>
		</g>
	</defs>

	<g>
		<rect x="10" y="10" height="40" width="60" fill="white" stroke="black" stroke-width="2"/>
		<text x="40" y="35" fill="black" font-family="sans-serif" font-size="16" text-anchor="middle">1</text>
	</g>
	<use xlink:href="#arrow" x="80" y="35" />

	<g>
		<rect x="90" y="10" height="40" width="60" fill="white" stroke="black" stroke-width="2"/>
		<text x="120" y="35" fill="black" font-family="sans-serif" font-size="16" text-anchor="middle">2</text>
	</g>
	<use xlink:href="#arrow" x="160" y="35" />

	<g>
		<rect x="170" y="10" height="40" width="60" fill="white" stroke="black" stroke-width="2"/>
		<text x="200" y="35" fill="black" font-family="sans-serif" font-size="16" text-anchor="middle">3</text>
	</g>
	<use xlink:href="#arrow" x="240" y="35" />

	<g>
		<rect x="250" y="10" height="40" width="60" fill="white" stroke="black" stroke-width="2"/>
		<text x="280" y="35" fill="black" font-family="sans-serif" font-size="16" text-anchor="middle">4</text>
	</g>
	<use xlink:href="#arrow" x="320" y="35" />

	<g>
		<rect x="330" y="10" height="40" width="60" fill="white" stroke="black" stroke-width="2"/>
		<text x="360" y="35" fill="black" font-family="sans-serif" font-size="16" text-anchor="middle">5</text>
	</g>
	<use xlink:href="#arrow" x="400" y="35" />

	<g>
		<rect x="410" y="10" height="40" width="60" fill="white" stroke="black" stroke-width="2"/>
		<text x="440" y="35" fill="black" font-family="sans-serif" font-size="16" text-anchor="middle">6</text>
	</g>
	<use xlink:href="#arrow" x="480" y="35" />

	<g>
		<rect x="490" y="10" height="40" width="60" fill="white" stroke="black" stroke-width="2"/>
		<text x="520" y="35" fill="black" font-family="sans-serif" font-size="16" text-anchor="middle">7</text>
	</g>
	<use xlink:href="#arrow" x="560" y="35" />

	<g>
		<rect x="570" y="10" height="40" width="60" fill="white" stroke="black" stroke-width="2"/>
		<text x="600" y="35" fill="black" font-family="sans-serif" font-size="16" text-anchor="middle">8</text>
	</g>
	<use xlink:href="#arrow" x="640" y="35" />

	<g>
		<rect x="650" y="10" height="40" width="60" fill="white" stroke="black" stroke-width="2"/>
		<text x="680" y="35" fill="black" font-family="sans-serif" font-size="16" text-anchor="middle">9</text>
	</g>
	<use xlink:href="#arrow" x="720" y="35" />

	<g>
		<rect x="730" y="10" height="40" width="60" fill="white" stroke="black" stroke-width="2"/>
		<text x="760" y="35" fill="black" font-family="sans-serif" font-size="16" text-anchor="middle">10</text>
	</g>

</svg>